<svg width="26" height="33" viewBox="0 0 26 33" fill="none" xmlns="http://www.w3.org/2000/svg">
<path d="M7.02709 20.9705C6.73269 20.9705 6.53428 20.9993 6.43188 21.0281V22.9129C6.55348 22.9417 6.70548 22.9497 6.91508 22.9497C7.68148 22.9497 8.15348 22.5625 8.15348 21.9081C8.15348 21.3225 7.74708 20.9705 7.02709 20.9705ZM12.6063 20.9897C12.2863 20.9897 12.0783 21.0185 11.9551 21.0473V25.2233C12.0783 25.2521 12.2767 25.2521 12.4559 25.2521C13.7631 25.2617 14.6143 24.5417 14.6143 23.0185C14.6239 21.6905 13.8479 20.9897 12.6063 20.9897Z" fill="#4F61E8"/>
<path d="M16.2 0.682373H3.39995C2.55126 0.682373 1.73733 1.01951 1.13721 1.61963C0.537093 2.21975 0.199951 3.03368 0.199951 3.88237V29.4824C0.199951 30.3311 0.537093 31.145 1.13721 31.7451C1.73733 32.3452 2.55126 32.6824 3.39995 32.6824H22.6C23.4486 32.6824 24.2626 32.3452 24.8627 31.7451C25.4628 31.145 25.8 30.3311 25.8 29.4824V10.2824L16.2 0.682373ZM8.99675 23.3864C8.50235 23.8504 7.77275 24.0584 6.92315 24.0584C6.75842 24.0602 6.59376 24.0505 6.43035 24.0296V26.3112H4.99995V20.0136C5.64548 19.9173 6.29774 19.8734 6.95035 19.8824C7.84155 19.8824 8.47515 20.052 8.90235 20.3928C9.30875 20.716 9.58395 21.2456 9.58395 21.8696C9.58235 22.4968 9.37435 23.0264 8.99675 23.3864V23.3864ZM15.088 25.5544C14.416 26.1128 13.3936 26.3784 12.144 26.3784C11.3952 26.3784 10.8656 26.3304 10.5056 26.2824V20.0152C11.1513 19.9209 11.8034 19.8765 12.456 19.8824C13.6672 19.8824 14.4544 20.1 15.0688 20.564C15.7328 21.0568 16.1488 21.8424 16.1488 22.9704C16.1488 24.1912 15.7024 25.0344 15.088 25.5544V25.5544ZM21 21.1144H18.5488V22.572H20.84V23.7464H18.5488V26.3128H17.0992V19.9304H21V21.1144ZM16.2 11.8824H14.6V3.88237L22.6 11.8824H16.2Z" fill="#4F61E8"/>
</svg>
