<svg width="18" height="19" viewBox="0 0 18 19" fill="none" xmlns="http://www.w3.org/2000/svg">
<path d="M16.1237 3.00415H14.4987V4.00415H15.9987V15.0042H1.99866V4.00415H3.49866V3.00415H1.87366C1.75678 3.0061 1.64143 3.03106 1.5342 3.0776C1.42696 3.12415 1.32995 3.19136 1.24869 3.2754C1.16744 3.35944 1.10354 3.45866 1.06064 3.5674C1.01774 3.67614 0.996677 3.79227 0.998664 3.90915V15.0992C0.996677 15.216 1.01774 15.3322 1.06064 15.4409C1.10354 15.5496 1.16744 15.6489 1.24869 15.7329C1.32995 15.8169 1.42696 15.8842 1.5342 15.9307C1.64143 15.9772 1.75678 16.0022 1.87366 16.0042H16.1237C16.2405 16.0022 16.3559 15.9772 16.4631 15.9307C16.5704 15.8842 16.6674 15.8169 16.7486 15.7329C16.8299 15.6489 16.8938 15.5496 16.9367 15.4409C16.9796 15.3322 17.0007 15.216 16.9987 15.0992V3.90915C17.0007 3.79227 16.9796 3.67614 16.9367 3.5674C16.8938 3.45866 16.8299 3.35944 16.7486 3.2754C16.6674 3.19136 16.5704 3.12415 16.4631 3.0776C16.3559 3.03106 16.2405 3.0061 16.1237 3.00415Z" fill="#4F61E8"/>
<path d="M3.99902 7.00439H4.99902V8.00439H3.99902V7.00439Z" fill="#4F61E8"/>
<path d="M6.99902 7.00439H7.99902V8.00439H6.99902V7.00439Z" fill="#4F61E8"/>
<path d="M9.99854 7.00439H10.9985V8.00439H9.99854V7.00439Z" fill="#4F61E8"/>
<path d="M12.999 7.00439H13.999V8.00439H12.999V7.00439Z" fill="#4F61E8"/>
<path d="M3.99902 9.50439H4.99902V10.5044H3.99902V9.50439Z" fill="#4F61E8"/>
<path d="M6.99902 9.50439H7.99902V10.5044H6.99902V9.50439Z" fill="#4F61E8"/>
<path d="M9.99854 9.50439H10.9985V10.5044H9.99854V9.50439Z" fill="#4F61E8"/>
<path d="M12.999 9.50439H13.999V10.5044H12.999V9.50439Z" fill="#4F61E8"/>
<path d="M3.99902 12.0042H4.99902V13.0042H3.99902V12.0042Z" fill="#4F61E8"/>
<path d="M6.99902 12.0042H7.99902V13.0042H6.99902V12.0042Z" fill="#4F61E8"/>
<path d="M9.99854 12.0042H10.9985V13.0042H9.99854V12.0042Z" fill="#4F61E8"/>
<path d="M12.999 12.0042H13.999V13.0042H12.999V12.0042Z" fill="#4F61E8"/>
<path d="M4.99902 5.00439C5.13163 5.00439 5.25881 4.95172 5.35258 4.85795C5.44634 4.76418 5.49902 4.637 5.49902 4.50439V1.50439C5.49902 1.37179 5.44634 1.24461 5.35258 1.15084C5.25881 1.05707 5.13163 1.00439 4.99902 1.00439C4.86642 1.00439 4.73924 1.05707 4.64547 1.15084C4.5517 1.24461 4.49902 1.37179 4.49902 1.50439V4.50439C4.49902 4.637 4.5517 4.76418 4.64547 4.85795C4.73924 4.95172 4.86642 5.00439 4.99902 5.00439Z" fill="#4F61E8"/>
<path d="M12.9995 5.00439C13.1321 5.00439 13.2593 4.95172 13.3531 4.85795C13.4468 4.76418 13.4995 4.637 13.4995 4.50439V1.50439C13.4995 1.37179 13.4468 1.24461 13.3531 1.15084C13.2593 1.05707 13.1321 1.00439 12.9995 1.00439C12.8669 1.00439 12.7397 1.05707 12.646 1.15084C12.5522 1.24461 12.4995 1.37179 12.4995 1.50439V4.50439C12.4995 4.637 12.5522 4.76418 12.646 4.85795C12.7397 4.95172 12.8669 5.00439 12.9995 5.00439Z" fill="#4F61E8"/>
<path d="M6.49902 3.00415H11.499V4.00415H6.49902V3.00415Z" fill="#4F61E8"/>
</svg>
