<svg width="17" height="17" viewBox="0 0 17 17" xmlns="http://www.w3.org/2000/svg">
<path d="M14.236 16.3333H3.03599C2.39947 16.3333 1.78902 16.0804 1.33893 15.6303C0.888843 15.1802 0.635986 14.5698 0.635986 13.9333V1.13325C0.635986 0.921079 0.720272 0.717596 0.870301 0.567566C1.02033 0.417537 1.22381 0.333252 1.43599 0.333252H12.636C12.8482 0.333252 13.0516 0.417537 13.2017 0.567566C13.3517 0.717596 13.436 0.921079 13.436 1.13325V10.7333H16.636V13.9333C16.636 14.5698 16.3831 15.1802 15.933 15.6303C15.483 16.0804 14.8725 16.3333 14.236 16.3333ZM13.436 12.3333V13.9333C13.436 14.1454 13.5203 14.3489 13.6703 14.4989C13.8203 14.649 14.0238 14.7333 14.236 14.7333C14.4482 14.7333 14.6516 14.649 14.8017 14.4989C14.9517 14.3489 15.036 14.1454 15.036 13.9333V12.3333H13.436ZM11.836 14.7333V1.93325H2.23599V13.9333C2.23599 14.1454 2.32027 14.3489 2.4703 14.4989C2.62033 14.649 2.82381 14.7333 3.03599 14.7333H11.836ZM3.83599 4.33325H10.236V5.93325H3.83599V4.33325ZM3.83599 7.53325H10.236V9.13325H3.83599V7.53325ZM3.83599 10.7333H7.83599V12.3333H3.83599V10.7333Z"/>
</svg>
