<svg width="17" height="16" viewBox="0 0 17 16" xmlns="http://www.w3.org/2000/svg">
<path d="M15.4291 5.86667H14.7891C14.6718 5.86667 14.5651 5.744 14.5171 5.62133C14.4638 5.504 14.4531 5.344 14.5385 5.264L14.9918 4.81067C15.5251 4.28267 15.5465 3.456 15.0291 2.93333L13.8558 1.75467C13.3331 1.24267 12.5065 1.264 11.9678 1.79733L11.5198 2.24533C11.4611 2.30933 11.3171 2.32533 11.1945 2.28267C11.0451 2.23467 10.9171 2.10133 10.9171 1.99467V1.35467C10.9171 0.581333 10.3571 0 9.61581 0H7.95181C7.21048 0 6.65048 0.581333 6.65048 1.35467V1.99467C6.65048 2.10133 6.52248 2.23467 6.37315 2.28267C6.25048 2.32533 6.10648 2.30933 6.04781 2.24533L5.59981 1.79733C5.06115 1.264 4.23448 1.24267 3.71181 1.75467L2.53848 2.93333C2.02115 3.456 2.04248 4.28267 2.57581 4.81067L3.02915 5.264C3.11448 5.344 3.10381 5.504 3.05048 5.62133C3.00248 5.744 2.89581 5.86667 2.77848 5.86667H2.13848C1.38115 5.86667 0.783813 6.43733 0.783813 7.168V8.832C0.783813 9.56267 1.38115 10.1333 2.13848 10.1333H2.77848C2.89581 10.1333 2.99715 10.2507 3.04515 10.3627C3.09848 10.48 3.11448 10.64 3.02915 10.736L2.57581 11.1893C2.32515 11.44 2.18115 11.7653 2.16515 12.1067C2.14381 12.4693 2.28248 12.8107 2.53848 13.072L3.71181 14.2453C3.97848 14.5067 4.32515 14.6347 4.68248 14.624C5.01848 14.608 5.34381 14.4587 5.59981 14.208L6.04781 13.76C6.11715 13.6853 6.25048 13.6587 6.42115 13.7387C6.47448 13.76 6.52248 13.7867 6.55981 13.8293C6.59715 13.8613 6.65048 13.9253 6.65048 14.0053V14.6347C6.65048 15.4027 7.22115 16 7.95181 16H9.61581C10.3465 16 10.9171 15.4027 10.9171 14.6347V14.0053C10.9171 13.9253 10.9705 13.8613 11.0078 13.8293C11.0451 13.7867 11.0931 13.76 11.1465 13.7387C11.3171 13.6587 11.4505 13.6853 11.5198 13.76L11.9678 14.208C12.2238 14.4587 12.5491 14.608 12.8851 14.624C13.2425 14.6347 13.5891 14.5067 13.8558 14.2453L15.0291 13.072C15.2851 12.8107 15.4238 12.4693 15.4025 12.1067C15.3865 11.7653 15.2425 11.44 14.9918 11.1893L14.5385 10.736C14.4531 10.64 14.4691 10.48 14.5225 10.3627C14.5705 10.2507 14.6718 10.1333 14.7891 10.1333H15.4291C16.1865 10.1333 16.7838 9.56267 16.7838 8.832V7.168C16.7838 6.43733 16.1865 5.86667 15.4291 5.86667V5.86667ZM15.7171 8.832C15.7171 9.01867 15.5358 9.06667 15.4291 9.06667H14.7891C14.2611 9.06667 13.7811 9.39733 13.5465 9.93067C13.3118 10.4587 13.3865 11.056 13.7385 11.4453L13.7865 11.4987L14.2345 11.9467C14.2985 12.0053 14.3358 12.0853 14.3411 12.1547C14.3411 12.2187 14.3198 12.2667 14.2718 12.3147L13.0985 13.488C13.0505 13.5413 12.9971 13.5573 12.9385 13.5573C12.8638 13.5573 12.7891 13.52 12.7251 13.4507L12.2771 13.0027C12.0318 12.7573 11.6958 12.624 11.3331 12.624C11.1305 12.624 10.9118 12.672 10.7251 12.7573C10.5598 12.8213 10.3891 12.9333 10.2558 13.0667C9.99448 13.3173 9.85048 13.6533 9.85048 14.0053V14.6347C9.85048 14.7467 9.80248 14.9333 9.61581 14.9333H7.95181C7.76515 14.9333 7.71715 14.7467 7.71715 14.6347V14.0053C7.71715 13.6533 7.57315 13.3173 7.31181 13.0667C7.17848 12.9333 7.00781 12.8213 6.84248 12.7573C6.65581 12.672 6.43715 12.624 6.23448 12.624C5.87181 12.624 5.53581 12.7573 5.29048 13.0027L4.84248 13.4507C4.77848 13.52 4.70381 13.5573 4.62915 13.5573C4.57048 13.5573 4.51715 13.5413 4.46915 13.488L3.29581 12.3147C3.24781 12.2667 3.22648 12.2187 3.22648 12.1547C3.23181 12.0853 3.26915 12.0053 3.33315 11.9467L3.78115 11.4987L3.82915 11.4453C4.18115 11.056 4.25581 10.4587 4.02115 9.93067C3.78648 9.39733 3.30648 9.06667 2.77848 9.06667H2.13848C2.03181 9.06667 1.85048 9.01867 1.85048 8.832V7.168C1.85048 6.98133 2.03181 6.93333 2.13848 6.93333H2.77848C3.31715 6.93333 3.81315 6.58133 4.03715 6.032C4.26115 5.488 4.16515 4.89067 3.78648 4.50667L3.32781 4.05333C3.29581 4.02133 3.13581 3.84533 3.29581 3.68533L4.46381 2.512C4.60248 2.37867 4.76781 2.47467 4.84248 2.55467L5.29048 3.00267C5.63715 3.34933 6.19181 3.46667 6.70381 3.296C7.30115 3.104 7.71715 2.56533 7.71715 1.99467V1.35467C7.71715 1.22133 7.78115 1.06667 7.95181 1.06667H9.61581C9.78648 1.06667 9.85048 1.22133 9.85048 1.35467V1.99467C9.85048 2.56533 10.2665 3.104 10.8638 3.296C11.3758 3.46667 11.9305 3.34933 12.2771 3.00267L12.7251 2.55467C12.7998 2.47467 12.9651 2.37867 13.1038 2.512L14.2718 3.68533C14.4318 3.84533 14.2718 4.02133 14.2398 4.05333L13.7811 4.50667C13.4025 4.89067 13.3065 5.488 13.5305 6.032C13.7545 6.58133 14.2505 6.93333 14.7891 6.93333H15.4291C15.5358 6.93333 15.7171 6.98133 15.7171 7.168V8.832Z"/>
<path d="M8.78386 11.2C7.01853 11.2 5.58386 9.76538 5.58386 8.00005C5.58386 6.23472 7.01853 4.80005 8.78386 4.80005C10.5492 4.80005 11.9839 6.23472 11.9839 8.00005C11.9839 9.76538 10.5492 11.2 8.78386 11.2ZM8.78386 5.86672C7.60733 5.86672 6.65053 6.82352 6.65053 8.00005C6.65053 9.17658 7.60733 10.1334 8.78386 10.1334C9.9604 10.1334 10.9172 9.17658 10.9172 8.00005C10.9172 6.82352 9.9604 5.86672 8.78386 5.86672Z"/>
</svg>
